<?xml version="1.0" encoding="iso-8859-1"?>
<!-- Uploaded to: SVG Repo, www.svgrepo.com, Generator: SVG Repo Mixer Tools -->
<svg fill="#000000" height="800px" width="800px" version="1.1" id="Layer_1" xmlns="http://www.w3.org/2000/svg" xmlns:xlink="http://www.w3.org/1999/xlink" 
	 viewBox="0 0 511.999 511.999" xml:space="preserve">
<g>
	<g>
		<path d="M505.673,107.124c-9.658-9.657-91.227-91.227-100.798-100.798c-8.433-8.434-22.108-8.434-30.542,0s-8.434,22.108,0,30.542
			l12.248,12.248l-58.898,58.898c-24.93-24.93-30.011-30.011-51.072-51.072c-8.433-8.434-22.108-8.434-30.542,0
			c-8.434,8.434-8.434,22.108,0,30.542l23.552,23.552L71.077,309.58c-8.434,8.434-8.434,22.108,0,30.542l35.129,35.129l-99.88,99.88
			c-8.434,8.434-8.434,22.108,0,30.542c8.433,8.434,22.108,8.436,30.542,0l99.88-99.88l35.129,35.129
			c8.433,8.433,22.108,8.434,30.542,0l198.546-198.546l23.552,23.552c8.433,8.434,22.108,8.436,30.542,0
			c8.434-8.434,8.434-22.108,0-30.542c-21.054-21.054-26.152-26.152-51.072-51.072l58.898-58.897l12.248,12.248
			c8.433,8.434,22.108,8.436,30.542,0C514.107,129.232,514.107,115.558,505.673,107.124z M187.147,395.109l-70.256-70.257
			l28.516-28.516l18.325,18.325c8.433,8.433,22.108,8.434,30.542,0c8.434-8.434,8.434-22.108,0-30.542l-18.325-18.325l17.307-17.308
			l18.325,18.325c8.433,8.434,22.108,8.436,30.542,0c8.434-8.434,8.434-22.108,0-30.542l-18.325-18.325l17.307-17.307l18.325,18.325
			c8.433,8.434,22.108,8.436,30.542,0c8.434-8.434,8.434-22.108,0-30.542l-18.325-18.325l28.518-28.518
			c7.059,7.059,63.202,63.202,70.257,70.257L187.147,395.109z M373.444,153.773l-15.218-15.218l58.897-58.897l15.218,15.218
			L373.444,153.773z"/>
	</g>
</g>
</svg>